<svg width="24" height="24" viewBox="0 0 24 24" fill="none" xmlns="http://www.w3.org/2000/svg">
<g id="Test Drive">
<g id="Vector">
<path d="M17.84 4H7.16L2 12.34V20.27H8.38V17.48H16.62V20.27H23V12.34L17.84 4ZM21.5 12.78H17.81L17.06 11.44L20 10.35L21.49 12.77L21.5 12.78ZM4.99 10.35L7.93 11.44L7.18 12.78H3.5L4.99 10.36V10.35ZM18.12 18.77V15.98H6.88V18.77H3.5V14.28H8.06L10.1 10.65L5.8 9.06L7.99 5.5H17.01L19.21 9.05L14.91 10.64L16.95 14.27H21.51V18.76H18.13L18.12 18.77Z" fill="white"/>
<path d="M10.5 14.28H14.5L12.5 10.82L10.5 14.28Z" fill="white"/>
</g>
</g>
</svg>
