<svg width="24" height="24" viewBox="0 0 24 24" fill="none" xmlns="http://www.w3.org/2000/svg">
<g id="Konsultasi Pembelian">
<g id="Group">
<path id="Vector" d="M18.23 12.51C19.17 11.96 19.8 10.94 19.8 9.79C19.8 8.05 18.38 6.64 16.65 6.64C16.16 6.64 15.7 6.75 15.29 6.95L13.46 4H5.05L1 10.54V16.86H6.25V14.72H10.42L10.29 14.78V19.74H23V14.78L18.23 12.51ZM21.5 18.24H11.79V15.73L12.25 15.51L13.75 14.8L16 13.73L16.65 13.42L17.5 13.82L21.5 15.73V18.24ZM16.65 8.14C17.56 8.14 18.3 8.88 18.3 9.79C18.3 10.39 17.98 10.91 17.5 11.2C17.25 11.35 16.96 11.44 16.65 11.44C16.42 11.44 16.2 11.39 16 11.3C15.41 11.05 15 10.47 15 9.79C15 9.66 15.01 9.54 15.04 9.42C15.17 8.87 15.56 8.43 16.08 8.25C16.25 8.18 16.45 8.14 16.65 8.14ZM4.75 13.22V15.36H2.5V10.97L5.88 5.5H12.62L14.12 7.92C13.73 8.44 13.5 9.09 13.5 9.79C13.5 10.95 14.13 11.97 15.07 12.51L13.58 13.22H4.75Z" fill="white"/>
<path id="Vector_2" d="M9.44001 11.4H8.20001V12.66H9.44001V11.4Z" fill="white"/>
<path id="Vector_3" d="M9.03 6.03C8.1 6.03 7.47 6.17 7.09 6.28V7.38C7.49 7.23 8.13 7.09 9.04 7.09C9.95 7.09 10.24 7.22 10.24 7.77C10.24 8.2 10.04 8.36 9.6 8.6L9.04 8.89C8.49 9.18 8.24 9.45 8.24 10.16V10.73H9.4V10.28C9.4 9.81 9.54 9.71 9.95 9.47L10.5 9.16C10.99 8.89 11.41 8.6 11.41 7.68C11.41 6.49 10.79 6.03 9.03 6.03Z" fill="white"/>
</g>
</g>
</svg>
